<?xml version="1.0" encoding="utf-8"?>
<!-- Generator: Adobe Illustrator 18.0.0, SVG Export Plug-In . SVG Version: 6.00 Build 0)  -->
<!DOCTYPE svg PUBLIC "-//W3C//DTD SVG 1.1//EN" "http://www.w3.org/Graphics/SVG/1.1/DTD/svg11.dtd">
<svg version="1.1" id="Layer_1" xmlns="http://www.w3.org/2000/svg" xmlns:xlink="http://www.w3.org/1999/xlink" x="0px" y="0px"
	 viewBox="0 0 1367.6 677.6" enable-background="new 0 0 1367.6 677.6" xml:space="preserve">
<path fill-rule="evenodd" clip-rule="evenodd" fill="#0087E2" d="M351.4,227.1c2.9-4.5,5.6-9,8.7-13.4c15.2-21.5,30-43.4,46-64.3
	c13.1-17.1,27.4-33.2,41.6-49.3c10.9-12.2,22.1-24.2,34-35.5c23.2-21.9,47.9-42,77.4-55.2c15.7-7,32.2-10.7,49.3-9.1
	c17.6,1.6,33.9,7.6,49.2,16.5c20.1,11.8,37.9,26.7,55.1,42.5c14.4,13.2,29.1,26,43.9,38.7c4.3,3.7,9.4,6.5,14.2,9.6
	c11.9,7.4,24.7,8.2,38.1,5.2c13.9-3.1,27.8-6,41.8-8.7c5.9-1.1,11.9-1.5,17.9-2c15.8-1.1,29.8,4.3,43.3,11.6
	c23.6,12.8,43.1,30.5,60.6,50.5c19.8,22.6,34.9,48.2,47.5,75.5c0.2,0.4-0.2,1-0.4,2.1c-5.3-6-10.4-11.6-15.5-17.4
	c-7-8-13.6-16.3-21-23.9c-14.2-14.7-28.5-29.4-43.4-43.3c-10.6-10-22.1-19-35.1-26.1c-12-6.6-24.2-8.4-37.2-4.4
	c-9.5,2.9-19.2,5.6-28.5,9.3c-13.1,5.2-26.5,9.6-40.5,10.5c-9.8,0.6-20.1-0.5-29-5.9c-4.9-2.9-10-5.8-14.3-9.5
	c-14.3-12.5-28-25.5-40.6-39.8c-7.6-8.6-16.4-16.1-25.1-23.6c-13.5-11.6-28.1-21.8-44.5-29c-11.8-5.2-24.1-8.4-37.2-9.5
	c-25-2.1-46.8,6.4-67.7,18.6c-19.4,11.3-36.9,25.1-54.1,39.6c-23.1,19.5-44.6,40.7-65.4,62.6c-16.1,17.1-31.2,35.2-46.6,53
	c-6,6.9-11.8,14.1-17.7,21.1c-1.2,1.4-2.6,2.5-3.9,3.8C352.1,227.6,351.8,227.4,351.4,227.1z"/>
<path fill-rule="evenodd" clip-rule="evenodd" fill="#0087E2" d="M976.1,250.4c-10.3-1.8-20.6-3.8-31-5.3c-6.2-0.9-12.5-1-18.8-1.3
	c-28-1.4-54.6,5.1-80.2,15.7c-16.1,6.7-31.8,14.4-47.5,22c-15.2,7.3-30.8,13.8-46.9,19c-18.3,5.9-37.3,7.3-56.1,5.2
	c-16.4-1.8-32.6-5.8-47.7-13.1c-13.6-6.6-27.3-13-41-19.6c-24.6-12-50.4-20.4-77.2-25.1c-17.7-3.1-35.8-5.2-53.9-3.7
	c-28.4,2.4-55.9,8.3-81.6,21c-4,2-7.8,4.5-12.5,5.5c3.5-3,6.9-6.2,10.7-8.9c24.1-17.3,50.8-28.3,80-33.5c17.9-3.2,35.9-4.3,54-3.1
	c16.2,1.1,32.3,3.5,48.2,7.2c20.9,4.9,40.9,12.6,60.9,20.2c15,5.6,30.3,9.9,46.2,12.4c11.3,1.8,22.6,3,34.1,3.2
	c20.2,0.3,39.9-2.9,59.3-7.9c18.2-4.8,36.2-10.5,54.2-15.8c15.6-4.6,31.4-9.3,47.6-10.5c29.6-2.3,59-1,87,10.9
	c4.2,1.8,8.5,3.2,12.8,4.7C976.5,249.7,976.3,250.1,976.1,250.4z"/>
<path fill-rule="evenodd" clip-rule="evenodd" fill="#FF66CC" d="M984.6,158.1c-5.9-7.7-10.9-14.2-16.4-21.4
	c18.6-32.2,37.3-64.7,56-97.3c-3.3-2.4-6.5-1.4-9.5-1.4c-99-0.1-198.1-0.2-297.1,0.1c-9.6,0-17-2.4-23.8-9.1
	c-4.7-4.6-10.5-7.9-15.8-11.8c-1.6-1.2-3.1-2.5-5.5-4.5c132.2,0,263.2,0,395.6,0C1040.5,61.7,1012.5,109.2,984.6,158.1z"/>
<path fill-rule="evenodd" clip-rule="evenodd" fill="#FF66CC" d="M300.8,12.6c74.6,0,147.7,0,221.7,0c-1.4,1.6-2.2,2.9-3.4,3.7
	c-8.4,5.9-17.2,11.3-25.3,17.7c-3.7,2.9-7.2,4-11.7,3.9c-33.7-0.1-67.4,0-101.1,0c-11.8,0-23.5,0-36,0c1.1,7.1,6.1,11.4,8.8,16.8
	c2.8,5.6,6.1,11,9.3,16.5c3.3,5.7,6.7,11.3,10,17c3.2,5.5,6.2,11,9.4,16.4c3.2,5.5,6.4,10.9,9.5,16.4c3.1,5.5,6.1,11,9.3,16.9
	c-4.5,6.9-9.2,14.1-14.2,21.7c-4.7-3.7-6.8-8.8-9.4-13.3c-17.2-29.5-34.3-59-51.3-88.5c-7.3-12.7-14.4-25.4-21.6-38.1
	C303.4,17.8,302.4,15.7,300.8,12.6z"/>
<path fill-rule="evenodd" clip-rule="evenodd" fill="#FF66CC" d="M763.1,541.3c-26.6,46.1-52.5,90.9-78.7,136.3
	c-26.4-45.8-52.4-90.7-78.7-136.3h28.5c16.6,28.7,33.2,57.3,50.2,86.7c4.8-8.1,9-15.2,13.1-22.3c12-20.9,24-41.7,35.9-62.6
	c0.4-0.6,0.7-1.2,1.1-1.8H763.1z"/>
<path fill-rule="evenodd" clip-rule="evenodd" fill="#0087E2" d="M458.1,263.9c13.4-3.5,26.9-3.3,40.3-2.4
	c13.1,0.9,26.1,2.8,38.9,5.5c31.3,6.5,60.3,19.1,88.5,33.9c19.8,10.4,40.6,17.9,63,21.1c10.9,1.5,21.7,1.2,32.6,1.1
	c5.4-0.1,10.7-1.6,16-2.5c1.3-0.2,2.7-0.4,4.4,0.9c-9.1,2.9-18.1,6.2-27.4,8.4c-12.5,3-25.3,4.3-38.3,4
	c-17.6-0.5-34.4-4.4-50.9-10.4c-17.6-6.4-33.4-16.4-49.8-25.1c-22.1-11.7-45.1-20.7-69.3-26.9C490.4,267.5,474.4,264.5,458.1,263.9z
	"/>
<path fill-rule="evenodd" clip-rule="evenodd" fill="#FF66CC" d="M928.7,254.5c-16.6,28.8-32.9,57.1-48.7,84.5h-28.4
	c0.8-1.4,1.6-2.8,2.4-4.2c10.9-18.8,21.7-37.7,32.6-56.5c3.6-6.2,7.4-12.2,10.8-18.5c1.4-2.6,3.1-3.4,5.9-4.1
	C911.6,253.6,919.8,254.3,928.7,254.5z"/>
<path fill-rule="evenodd" clip-rule="evenodd" fill="#FF66CC" d="M517.5,339h-28.6c-12.2-21.2-24.3-42.2-37.2-64.7
	c10.2,1,19,1.5,27.7,2.8c2,0.3,4,3,5.3,5c3.7,5.8,6.9,11.8,10.4,17.8c7.3,12.6,14.6,25.2,21.9,37.9
	C517.1,338.2,517.3,338.6,517.5,339z"/>
<path fill-rule="evenodd" clip-rule="evenodd" fill="#0087E2" d="M742.8,223.7c-1.9-0.9-5.7-4.5-5.7-4.5c0.2-7-2.6-7.2-2.6-7.2
	c-5.5,2.8-7.2,8.7-7.2,8.7c-3.3,6.1,2.1,14.3,9.6,13.6C744.3,233.7,744.7,224.6,742.8,223.7z M729.9,227.1c-1.4-6,3.3-7.9,3.3-7.9
	c1.2-0.7,2.3,0.6,1.1,2.7c-1.1,2.1-0.9,2.6,0,5.7c0.9,3.1,4.7,3.3,4.7,3.3C737.3,232.2,731.4,233.1,729.9,227.1z"/>
<path fill-rule="evenodd" clip-rule="evenodd" fill="#0087E2" d="M839.5,187c-0.6-4.1-2.6-8.3-5.1-11.6
	c-9.4-12.8-23.4-17.5-38.3-17.5c-9.6,0-19,2.9-27.3,8.9c-7.5,5.4-14.5,12.1-24.1,14.3c-1.2,0.3-2.2,1.6-3,2.3
	c-5.7-1.8-5.5-6.8-6.9-10.7c-5.9-16.5-15.2-30.3-31.2-38.3c-6.5-3.2-11.6-7.6-15.8-12.9c-9.3-11.9-20.8-21.4-32.8-30.2
	c-12.6-9.3-26-10.9-40-2c-10.6,6.7-19.5,15.2-27.5,24.6c-10.6,12.4-20.5,25.4-30.9,38.5c-2.1,0-4.4-0.1-6.7,0
	c-10.1,0.6-20,2.4-28.6,8c-7,4.6-14.4,8-21.8,11.7c-7,3.4-7.2,4.2-5.7,11.9c0.2,0.8,0.3,1.7,0.3,2.5c-0.3,3.1-1.9,6.5-0.9,9.1
	c1.1,2.9,5.2,4.5,6.5,7.4c2.4,5.7,6.8,6.4,11.9,6.3c12.6-0.3,24.9-2.8,37-6.3c10.6-3.1,20.8-6.7,26.9-16.9c0.7-1.2,2-2.1,3-3.1
	c16.9-15.5,34.4-30.1,55-40.1c5,7,9.8,14.2,15.1,20.9c5.3,6.7,11.2,12.9,16.8,19.4c-6.9,14.4-16.3,25.8-31.1,32.2
	c-9.1,3.9-16.2,10.7-24.8,17.7c6.8,2.7,12.2,5.1,17.8,7.1c2.8,1,5.6,0.4,8.2-1.3c8.7-5.6,17.5-11.1,23.4-19.9
	c4.4-6.7,9.1-13.2,13.3-20c2.1-3.4,4.8-5.2,8.7-6.2c2.7-0.7,6.6,0.4,8.1-3.5c-2.8-0.9-5.6-1.5-8.2-2.6c-7.3-3-13.5-7.5-17.6-14.5
	c-5.9-10.3-9.8-21.3-11.7-33c-1.1-7-1.8-14.1-2.8-21.8c-2.6,0.4-5.2,0.5-7.6,1.1c-27.1,6.9-46.7,23.5-61,46.9
	c-2.8,4.6-5.7,9.3-8.6,13.9c-4.5,7.3-11,12.4-18.5,16.3c-10.6,5.5-22.2,7.2-33.8,8.5c-4.7,0.5-9.5,0.9-15.3-1
	c7.9-7.8,18.4-3.7,27.5-9.4c-3.2,0-4.8-0.2-6.4,0c-5.3,0.9-10.6,2.1-16,2.9c-3.7,0.6-7.7,1.9-11-2.1c9.2-5.5,20.6-3,28.9-10.1
	c-2.1-0.6-4.3-0.7-6.2-0.2c-5.3,1.2-10.5,2.8-15.7,4c-1.7,0.4-3.5-0.3-6.8-0.7c8.9-8.2,20.6-5.6,29.9-12.3
	c-11.2-1.1-19.8,6.3-29.9,4.1c2.9-2.4,6-4.2,9.2-5.7c2.3-1.1,5.2-1.3,7.1-2.8c8.4-6.6,18.6-7,28.4-7.9c7.2-0.6,14.6,0.4,22.6,0.7
	c-3.2-4.7-0.4-8.4,1.8-11.8c6.4-9.8,12.7-19.8,20-29c8.5-10.8,17.6-21.1,29.5-28.6c15-9.5,24.1-6.3,35.7,1.3
	c13.4,8.8,23.3,21.1,32.3,34.1c0.8,1.2,0.9,2.9,1.3,4.4c-3.6,1.2-6.6,2.2-10.2,3.4c6.7,1.9,12.7,2.8,18.1,5.2
	c17.5,7.9,22.3,9.8,29.5,31c3.1,9.1,4.7,18.7,7,28c-7.6,12.1-8.5,15.4-6.7,25.5c1-2.4,1.5-3.9,2.2-5.4c1.9-4.1,3-9.1,6-12
	c3.4-3.3,6-6.7,8-10.8c0.7-1.4,2-2.4,3-3.4c2.2,2.4,3.7,4.5,5.6,6c1.9,1.6,4.3,2.5,7.1,4.1c-3.7,3.2-7.1,6-10.5,8.9l-3.6-1.9
	l-1.3,0.7l4.4,3.9c1.9,2.8,3.1,6.5,8.5,5.6c1-3.1,1.9-6.2,3.3-10.6c0.8,4.3,2.4,7.7,1.6,10.2c-1.3,3.5-2.3,6.9-3,10.6
	c-0.3,1.7-1.8,3.8-3.4,4.6c-2.7,1.4-5.9,2.6-8.9,2.5c-5.5-0.2-11-1.3-16.7-2.1c1.3,2.7,2.5,5.1,3.5,7.2c-5.2,5.5-12.5,7.4-16.4,13.6
	c4.4-1.4,8.6-3,12.5-5.3c5.1-3,10.1-5,16.2-4.4c4.5,0.4,9.2-0.1,13.8-0.1c9.9,0.1,19.2-2.1,28.1-6.6c3.5-1.8,7.7-4.1,11.2-3.5
	c8.3,1.2,15-1.6,21.9-5.1C836.3,223.9,842.2,206.3,839.5,187z M753.2,200.1c0.3-7.7-5.7-12.1-5.7-12.1c-1.7-3.6,4.9-4.5,8.1,2.3
	C758.8,197.1,753.2,200.1,753.2,200.1z M769,223.5c0,0,1.7-8.1-8.7-13.4c0,0,8.3-3.4,11.7,6.6C772,216.7,773.5,221.6,769,223.5z
	 M772.5,209.7c-4.3-3.9-9.3-5.1-15.9-6.1c6.6-7.6,2.4-14.3,0.3-21.5c3.1-2.5,6.1-5,9.7-7.9c3.3,13.3,8.4,24.8,16.9,35.3
	C779.1,211.8,775.1,212.1,772.5,209.7z M784.1,188.6c4.1,6.5,8.1,13.3,12.9,19.2c4.3,5.3,2.8,10.1,0.5,15.1c-0.4,1-2.2,1.3-3.9,2.2
	c-0.1-1.9-0.4-3-0.3-4.1c0.9-6-1.4-10.4-5.6-14.6c-7.3-7.2-11.5-16.4-14.8-25.9c-0.5-1.6-0.3-3.3-0.5-5.2c8-6.3,16.7-9.8,28.3-8.9
	c-9.5,2.5-14.3,5.1-21.9,11.7C780.5,181.6,782,185.2,784.1,188.6z"/>
<g>
	<g>
		<path fill="#0087E2" d="M84.5,423.4c0.4,23.6-14,47.4-46.6,47.4c-11.4,0-25.2,0-36.6,0v-93.1c11.4,0,25.1,0,36.6,0
			C69.9,377.7,84.1,400.4,84.5,423.4z M18.8,453.9h19.2c21.2,0,29.5-15.4,29.1-30.6c-0.4-14.5-8.9-29-29.1-29H18.8V453.9z"/>
		<path fill="#0087E2" d="M99.8,470.8v-93.1h17.4v93.1H99.8z"/>
		<path fill="#0087E2" d="M131.6,470.8v-93h66.9v16.9h-49.4v25.4h46.7v16.2h-46.7v34.5H131.6z"/>
		<path fill="#0087E2" d="M210.7,470.8v-93h66.9v16.9h-49.4v25.4h46.7v16.2h-46.7v34.5H210.7z"/>
		<path fill="#0087E2" d="M359.2,470.8h-69.7c0-31,0-62.1,0-93.1h69.7v17h-52.3v21.4h50.4v16.4h-50.4v21h52.3V470.8z"/>
		<path fill="#0087E2" d="M455.4,470.8h-20.9l-27.1-31.1h-16.9v31.1h-17.6v-93.3c14.8,0,29.5,0.1,44.3,0.1
			c22,0.1,33.5,14.8,33.5,30.9c0,12.8-5.9,25.7-23.6,29.3l28.2,31.8V470.8z M390.4,394v29.8h26.7c11.2,0,16-7.5,16-14.9
			s-4.9-14.9-16-14.9H390.4z"/>
		<path fill="#0087E2" d="M534.1,470.8h-69.7c0-31,0-62.1,0-93.1h69.7v17h-52.3v21.4h50.4v16.4h-50.4v21h52.3V470.8z"/>
		<path fill="#0087E2" d="M607.5,377.5H625v93.3h-10.9v0.1l-49-62.9v62.8h-17.6v-93.1h14.2l45.6,57.8V377.5z"/>
		<path fill="#0087E2" d="M665.2,393.6h-29.5v-16c26.9,0,49.6,0,76.6,0v16h-29.5v77.2h-17.6V393.6z"/>
		<path fill="#0087E2" d="M805.2,400.1c-3.2-5.3-12-10.4-22.1-10.4c-13,0-19.3,5.5-19.3,12.4c0,8.1,9.6,10.4,20.8,11.7
			c19.4,2.4,37.5,7.5,37.5,29.7c0,20.8-18.4,29.7-39.1,29.7c-19,0-33.7-5.9-40.6-22.9l14.6-7.6c4.1,10.2,14.9,14.8,26.2,14.8
			c11,0,21.4-3.9,21.4-14c0-8.8-9.2-12.4-21.6-13.7c-19-2.3-36.6-7.3-36.6-28.2c0-19.2,18.9-27,36.1-27.1c14.5,0,29.5,4.1,36.6,18.5
			L805.2,400.1z"/>
		<path fill="#0087E2" d="M861.9,393.6h-29.5v-16c26.9,0,49.6,0,76.6,0v16h-29.5v77.2h-17.6V393.6z"/>
		<path fill="#0087E2" d="M1004.4,470.8h-20.9l-27.1-31.1h-16.9v31.1h-17.6v-93.3c14.8,0,29.5,0.1,44.3,0.1
			c22,0.1,33.5,14.8,33.5,30.9c0,12.8-5.9,25.7-23.6,29.3l28.2,31.8V470.8z M939.4,394v29.8h26.7c11.2,0,16-7.5,16-14.9
			s-4.9-14.9-16-14.9H939.4z"/>
		<path fill="#0087E2" d="M1103.1,424.8c-0.3,24.1-15,48.2-47.8,48.2c-32.7,0-47.9-23.6-47.9-48s15.7-49.1,47.9-49.1
			C1087.4,375.8,1103.4,400.4,1103.1,424.8z M1024.7,425.2c0.4,15.3,8.7,31.7,30.6,31.7c22,0,30.2-16.5,30.5-31.8
			c0.3-15.7-8.5-33.3-30.5-33.3C1033.4,391.8,1024.3,409.5,1024.7,425.2z"/>
		<path fill="#0087E2" d="M1192.9,378.2l-41.4,44.6l44.8,47v1.1h-21.7l-39-41.3v41.3h-17.6v-93.1h17.6V417l35.4-39.4h21.8V378.2z"/>
		<path fill="#0087E2" d="M1276.9,470.8h-69.7c0-31,0-62.1,0-93.1h69.7v17h-52.3v21.4h50.4v16.4h-50.4v21h52.3V470.8z"/>
		<path fill="#0087E2" d="M1350.7,400.1c-3.2-5.3-12-10.4-22.1-10.4c-13,0-19.3,5.5-19.3,12.4c0,8.1,9.6,10.4,20.8,11.7
			c19.4,2.4,37.5,7.5,37.5,29.7c0,20.8-18.4,29.7-39.1,29.7c-19,0-33.7-5.9-40.6-22.9l14.6-7.6c4.1,10.2,14.9,14.8,26.2,14.8
			c11,0,21.4-3.9,21.4-14c0-8.8-9.2-12.4-21.6-13.7c-19-2.3-36.6-7.3-36.6-28.2c0-19.2,18.9-27,36.1-27.1c14.5,0,29.5,4.1,36.6,18.5
			L1350.7,400.1z"/>
	</g>
</g>
<rect x="1116.7" y="501.4" fill="#0087E2" width="250.9" height="5.9"/>
<rect x="1.3" y="501.4" fill="#0087E2" width="250.9" height="5.9"/>
<g>
	<path fill="#0087E2" d="M293,516c-3.2,3.1-7.2,4.6-11.7,4.6c-11.4,0-16.3-7.9-16.3-15.9c0-8,5.2-16.2,16.3-16.2
		c4.2,0,8.1,1.6,11.3,4.7l-3.9,3.7c-2-2-4.7-2.9-7.4-2.9c-7.4,0-10.6,5.5-10.6,10.7c0,5.1,3,10.4,10.6,10.4c2.7,0,5.7-1.1,7.7-3.1
		L293,516z"/>
	<path fill="#0087E2" d="M316.7,514.1h-16.1l-2.6,5.8h-6.3l13.8-30.8h6.3l13.8,30.8h-6.3L316.7,514.1z M308.7,495.6l-5.7,13.1h11.4
		L308.7,495.6z"/>
	<path fill="#0087E2" d="M334.5,489.1v25.4h15.8v5.4h-21.6v-30.8H334.5z"/>
	<path fill="#0087E2" d="M377.3,496.6c-2.1-2-5.1-3.1-7.8-3.1c-6.6,0-10.6,5-10.6,11.3c0,5.1,2.9,10.3,10.6,10.3
		c2.4,0,4.5-0.5,6.9-2.5v-5.4h-7.9v-5.2h13.2v13c-3,3.5-6.9,5.5-12.3,5.5c-11.6,0-16.3-7.6-16.3-15.7c0-8.7,5.4-16.6,16.3-16.6
		c4.1,0,8.3,1.6,11.4,4.7L377.3,496.6z"/>
	<path fill="#0087E2" d="M408.3,514.1h-16.1l-2.6,5.8h-6.3l13.8-30.8h6.3l13.8,30.8h-6.3L408.3,514.1z M400.3,495.6l-5.7,13.1H406
		L400.3,495.6z"/>
	<path fill="#0087E2" d="M447.1,519.9h-6.9l-9-10.3h-5.6v10.3h-5.8v-30.8c4.9,0,9.8,0,14.6,0c7.2,0,11.1,4.9,11.1,10.2
		c0,4.2-1.9,8.5-7.8,9.7l9.3,10.5V519.9z M425.6,494.5v9.8h8.8c3.7,0,5.3-2.5,5.3-4.9s-1.6-4.9-5.3-4.9H425.6z"/>
	<path fill="#0087E2" d="M462.4,501.8l8.2-12.7h7v0.3l-12.3,17.8v12.7h-5.8v-12.7l-11.8-17.8v-0.3h6.9L462.4,501.8z"/>
	<path fill="#0087E2" d="M494.8,489.1v25.4h15.8v5.4H489v-30.8H494.8z"/>
	<path fill="#0087E2" d="M537.5,496.6c-2.1-2-5.1-3.1-7.8-3.1c-6.6,0-10.6,5-10.6,11.3c0,5.1,2.9,10.3,10.6,10.3
		c2.4,0,4.5-0.5,6.9-2.5v-5.4h-7.9v-5.2H542v13c-3,3.5-6.9,5.5-12.3,5.5c-11.6,0-16.3-7.6-16.3-15.7c0-8.7,5.4-16.6,16.3-16.6
		c4.1,0,8.3,1.6,11.4,4.7L537.5,496.6z"/>
	<path fill="#0087E2" d="M571.7,498.1c0,2.4-1.1,4.7-4,5.9c3.6,1.1,4.9,4.9,4.9,6.9c0,6.9-5.1,9-11.5,9c-4.9,0-9.7,0-14.6,0v-30.8
		c4.8,0,9.7,0,14.6,0C567.2,489.1,571.7,491.9,571.7,498.1z M552.3,501.5h8.9c3.6,0,4.8-1.5,4.8-3.3c0-1.4-1.1-3.8-4.8-3.8h-8.9
		V501.5z M552.3,514.5h8.9c2.4,0,5.8-0.8,5.8-3.7c0-2.8-3.4-4.2-5.8-4.2h-8.9V514.5z"/>
	<path fill="#0087E2" d="M584.7,494.4h-9.8v-5.3c8.9,0,16.4,0,25.3,0v5.3h-9.8v25.5h-5.8V494.4z"/>
	<path fill="#0087E2" d="M608.7,502.2v-6.5h5.3v6.5h6.5v4.9H614v6.6h-5.3v-6.6h-6.5v-4.9H608.7z"/>
	<path fill="#0087E2" d="M660,497.6L650,511h-1.1l-9.8-13.4v22.4h-5.8v-30.8h6.7l9.6,13.2l9.6-13.2h6.6v30.8H660V497.6z"/>
	<path fill="#0087E2" d="M693,514.1H677l-2.6,5.8h-6.3l13.8-30.8h6.3l13.8,30.8h-6.3L693,514.1z M685,495.6l-5.7,13.1h11.4
		L685,495.6z"/>
	<path fill="#0087E2" d="M723.1,496.6c-1.1-1.8-4-3.4-7.3-3.4c-4.3,0-6.4,1.8-6.4,4.1c0,2.7,3.2,3.4,6.9,3.9
		c6.4,0.8,12.4,2.5,12.4,9.8c0,6.9-6.1,9.8-12.9,9.8c-6.3,0-11.1-1.9-13.4-7.6l4.8-2.5c1.4,3.4,4.9,4.9,8.7,4.9
		c3.6,0,7.1-1.3,7.1-4.6c0-2.9-3-4.1-7.1-4.5c-6.3-0.7-12.1-2.4-12.1-9.3c0-6.3,6.2-8.9,11.9-9c4.8,0,9.8,1.4,12.1,6.1L723.1,496.6z
		"/>
	<path fill="#0087E2" d="M741.1,494.4h-9.8v-5.3c8.9,0,16.4,0,25.3,0v5.3h-9.8v25.5h-5.8V494.4z"/>
	<path fill="#0087E2" d="M783.1,519.9h-23c0-10.2,0-20.5,0-30.8h23v5.6h-17.3v7.1h16.6v5.4h-16.6v6.9h17.3V519.9z"/>
	<path fill="#0087E2" d="M814.9,519.9H808l-9-10.3h-5.6v10.3h-5.8v-30.8c4.9,0,9.8,0,14.6,0c7.2,0,11.1,4.9,11.1,10.2
		c0,4.2-1.9,8.5-7.8,9.7l9.3,10.5V519.9z M793.4,494.5v9.8h8.8c3.7,0,5.3-2.5,5.3-4.9s-1.6-4.9-5.3-4.9H793.4z"/>
	<path fill="#0087E2" d="M837.6,496.6c-1.1-1.8-4-3.4-7.3-3.4c-4.3,0-6.4,1.8-6.4,4.1c0,2.7,3.2,3.4,6.9,3.9
		c6.4,0.8,12.4,2.5,12.4,9.8c0,6.9-6.1,9.8-12.9,9.8c-6.3,0-11.1-1.9-13.4-7.6l4.8-2.5c1.4,3.4,4.9,4.9,8.7,4.9
		c3.6,0,7.1-1.3,7.1-4.6c0-2.9-3-4.1-7.1-4.5c-6.3-0.7-12.1-2.4-12.1-9.3c0-6.3,6.2-8.9,11.9-9c4.8,0,9.8,1.4,12.1,6.1L837.6,496.6z
		"/>
	<path fill="#0087E2" d="M875.5,496.6c-1.1-1.8-4-3.4-7.3-3.4c-4.3,0-6.4,1.8-6.4,4.1c0,2.7,3.2,3.4,6.9,3.9
		c6.4,0.8,12.4,2.5,12.4,9.8c0,6.9-6.1,9.8-12.9,9.8c-6.3,0-11.1-1.9-13.4-7.6l4.8-2.5c1.4,3.4,4.9,4.9,8.7,4.9
		c3.6,0,7.1-1.3,7.1-4.6c0-2.9-3-4.1-7.1-4.5c-6.3-0.7-12.1-2.4-12.1-9.3c0-6.3,6.2-8.9,11.9-9c4.8,0,9.8,1.4,12.1,6.1L875.5,496.6z
		"/>
	<path fill="#0087E2" d="M918.8,519.9h-4.9l-3.8-9.7l-3.3-9.7l-3.2,9.8l-3.7,9.6h-4.9l-11.3-30.8h6.5l7.2,22.2l7.5-22.2h3.8
		l7.7,22.2l7-22.2h6.5L918.8,519.9z"/>
	<path fill="#0087E2" d="M933.4,519.9v-30.8h5.8v30.8H933.4z"/>
	<path fill="#0087E2" d="M971.4,497.6l-10,13.4h-1.1l-9.8-13.4v22.4h-5.8v-30.8h6.7l9.6,13.2l9.6-13.2h6.6v30.8h-5.8V497.6z"/>
	<path fill="#0087E2" d="M1018.7,516c-3.2,3.1-7.2,4.6-11.7,4.6c-11.4,0-16.3-7.9-16.3-15.9c0-8,5.2-16.2,16.3-16.2
		c4.2,0,8.1,1.6,11.3,4.7l-3.9,3.7c-2-2-4.7-2.9-7.4-2.9c-7.4,0-10.6,5.5-10.6,10.7c0,5.1,3,10.4,10.6,10.4c2.7,0,5.7-1.1,7.7-3.1
		L1018.7,516z"/>
	<path fill="#0087E2" d="M1027.3,489.1v25.4h15.8v5.4h-21.6v-30.8H1027.3z"/>
	<path fill="#0087E2" d="M1072.3,489.2v17.6c0,9.1-5.6,13.8-13.3,13.8c-7.4,0-13.7-4.5-13.7-13.8v-17.6h5.8v17.6
		c0,5.5,3.2,8.5,8,8.5c4.8,0,7.5-3.2,7.5-8.5v-17.6H1072.3z"/>
	<path fill="#0087E2" d="M1103,498.1c0,2.4-1.1,4.7-4,5.9c3.6,1.1,4.9,4.9,4.9,6.9c0,6.9-5.1,9-11.5,9c-4.9,0-9.7,0-14.6,0v-30.8
		c4.8,0,9.7,0,14.6,0C1098.5,489.1,1103,491.9,1103,498.1z M1083.5,501.5h8.9c3.6,0,4.8-1.5,4.8-3.3c0-1.4-1.1-3.8-4.8-3.8h-8.9
		V501.5z M1083.5,514.5h8.9c2.4,0,5.8-0.8,5.8-3.7c0-2.8-3.4-4.2-5.8-4.2h-8.9V514.5z"/>
</g>
</svg>
